<?xml version="1.0" encoding="utf-8"?>
<!-- Generator: Adobe Illustrator 15.1.0, SVG Export Plug-In . SVG Version: 6.00 Build 0)  -->
<!DOCTYPE svg PUBLIC "-//W3C//DTD SVG 1.1//EN" "http://www.w3.org/Graphics/SVG/1.1/DTD/svg11.dtd">
<svg version="1.1" id="Ebene_1" xmlns="http://www.w3.org/2000/svg" xmlns:xlink="http://www.w3.org/1999/xlink" x="0px" y="0px"
	 width="1024px" height="1024px" viewBox="0 0 1024 1024" enable-background="new 0 0 1024 1024" xml:space="preserve">
<rect fill="#FFFFFF" width="1024" height="1024"/>
<g>
	<path fill="#CCCCCB" d="M954.861,722.835c-0.154-0.595-0.251-1.184-0.434-1.777c-160.307,3.89-264.531-1.498-288.343-20.383
		c-20.604-16.35-8.195-81.19,30.118-178.31c6.544-16.588,13.753-33.931,21.648-52.171c15.439-35.667,56.623-124.529,56.615-124.515
		c9.862-22.417,15.615-42.975,14.768-59.646c-1.217-24.084-16.524-37.67-45.725-35.955c-4.879,0.288-150.404,16.736-200.301,22.11
		c-13.039,1.407-25.687,2.758-37.978,4.046c-120.336,12.633-200.721,19.261-227.646,17.833c-19.375-1.021-35.703-8.398-50.38-20.604
		c-3.716-3.093-7.181-6.356-10.764-10.072c-1.96-2.029-7.265-7.776-7.65-8.181c-3.661-3.85-5.221-5.166-8.378-5.565
		c-7.565-0.958-9.141,3.983-8.819,10.716c1.393,29.214,28.969,67.871,62.852,83.835c22.629,10.653,177.273,12.759,381.466,4.928
		c0.497-1.337,0.944-2.688,1.288-4.046c0.463-1.82,0.687-3.171,0.749-3.808l7.076,7.503c-3.066,0.119-6.075,0.224-9.113,0.351
		c-0.63,1.672-1.345,3.324-2.232,4.885c-3.976,7.026-9.841,11.261-18.547,11.884c-14.587,1.042-144.533,14.376-153.534,15.265
		c-17.357,1.715-33.659,3.268-49.26,4.71c-88.146,8.119-150.774,12.011-184.063,10.569c-16.364-0.714-31.356-6.852-46.621-17.414
		c-5.747-3.976-20.214-15.56-20.808-15.993c-3.92-2.834-6.538-4.15-9.905-3.885c-5.983,0.448-8.147,5.04-8.097,10.757
		c0.175,25.638,27.779,60.108,61.479,76.362c28.193,13.599,175.047,15.082,388.5,7.118c0.603-1.428,1.163-2.863,1.616-4.313
		c0.604-1.911,0.939-3.353,1.064-4.059l7,8.006c-3.255,0.126-6.447,0.238-9.681,0.365c-0.741,1.756-1.574,3.485-2.555,5.129
		c-4.458,7.483-10.456,11.913-18.582,12.438c-9.239,0.595-28.416,2.247-64.994,5.544c-10.317,0.937-51.15,4.633-51.143,4.633
		c-22.355,2.03-40.077,3.625-57.491,5.172c-7.895,0.7-15.518,1.372-22.93,2.023c-114.028,9.995-183.214,14.88-197.584,13.213
		c-7.503-0.875-17.106-3.863-28.346-8.657c-5.858-2.499-12.053-5.438-18.597-8.784c-8.042-4.101-12.928-6.803-25.323-13.823
		c-9.666-5.474-17.126,0.805-16.875,11.177c0.162,6.663,2.989,15.938,7.762,25.66c11.612,23.636,31.118,44.221,54.474,53.304
		c32.854,12.754,169.932,14.623,392.7,7.658c0.155-0.407,0.322-0.854,0.483-1.261c1.623-4.163,2.744-6.999,3.324-8.455l6.565,9.393
		c-3.499,0.113-6.915,0.219-10.373,0.323c-2.583,6.663-5.521,14.39-8.812,23.209c-9.98,26.736-21.025,57.706-32.826,92.528
		c-14.271,42.12-2.289,73.98,29.88,94.083c16.489,10.302,37.941,16.993,60.528,20.226l30.453-10.835l0.489-0.174l1.799,5.073
		l0.007-5.291l39.622,0.008l1.666-0.595l-40.874,0.405c-31.511,0.323-64.455-6.691-86.447-20.423
		c-26.856-16.785-36.367-42.079-24.167-78.083c11.758-34.687,22.754-65.524,32.686-92.143c3.472-9.309,6.559-17.421,9.232-24.294
		c1.596-4.115,2.701-6.896,3.261-8.294l3.919-9.729l-10.484,0.337c-225.308,7.229-367.013,5.487-397.675-6.418
		c-19.794-7.7-36.935-25.785-47.154-46.587c-3.12-6.354-5.15-12.277-5.949-16.665c-1.245-0.699-2.534-1.435-3.954-2.234
		c-0.034-0.026,1.183,0.071,2.652-1.168c0.876-0.735,0.869-0.722,0.89,0.111c0.021,0.945,0.189,2.086,0.413,3.291
		c9.757,5.508,14.544,8.118,21.887,11.871c6.804,3.478,13.277,6.55,19.451,9.183c12.346,5.255,23.089,8.608,32.14,9.659
		c15.845,1.84,83.898-2.961,200.349-13.173c7.42-0.651,15.049-1.323,22.951-2.023c17.427-1.554,35.148-3.149,57.511-5.172
		c0,0,40.826-3.703,51.143-4.633c36.41-3.283,55.573-4.935,64.637-5.522c13.137-0.841,22.88-8.035,29.46-19.08
		c4.038-6.774,6.137-13.453,6.957-18.163l1.448-8.336l-8.447,0.33c-213.711,8.182-366.314,6.852-391.713-5.411
		c-25.561-12.318-47.16-36.752-52.479-55.895c-2.842-2.239-4.886-3.877-4.949-3.919c-1.225-0.882-1.966-1.259-0.854-1.343
		c3.535-0.266,4.542-2.408,4.536-2.981c0.021,2.589,0.468,5.361,1.267,8.244c4.878,3.843,12.136,9.505,16.084,12.229
		c17.204,11.905,34.505,18.987,53.808,19.828c34.143,1.483,97.106-2.422,185.918-10.611c15.629-1.441,31.95-3.002,49.344-4.717
		c9.294-0.916,138.828-14.208,153.161-15.23c13.635-0.98,23.391-8.021,29.481-18.8c3.821-6.761,5.515-13.409,5.977-18.134
		l0.77-7.818l-7.846,0.315c-204.375,8.084-364.388,6.055-384.217-3.283c-23.657-11.156-44.066-35.472-51.758-57.043
		c-0.637-0.637-1.273-1.225-1.911-1.89c-2.093-2.169-7.447-7.964-7.72-8.251c-0.917-0.973-1.569-1.603-1.995-1.96
		c0.204,0.168,0.567,0.384,1.806,0.539c3.17,0.406,5.697-1.624,6.439-3.947c0.119-0.378,0.105-0.141,0.134,0.441
		c0.223,4.703,1.371,9.806,3.247,15.068c3.255,3.276,6.489,6.327,9.945,9.211c16.791,13.956,35.814,22.551,58.408,23.741
		c28.003,1.484,108.359-5.144,229.795-17.889c12.304-1.296,24.966-2.646,38.02-4.054c50.574-5.452,195.184-21.787,199.635-22.054
		c21.643-1.273,30.426,6.523,31.259,22.985c0.713,14.012-4.558,32.839-13.628,53.452c0.084-0.188-41.126,88.721-56.65,124.592
		c-7.944,18.365-15.217,35.849-21.816,52.577c-41.281,104.651-54.11,171.674-25.896,194.058
		c22.047,17.484,92.99,24.609,205.619,24.623v0.512c27.339-0.016,54.691-0.021,82.772-0.021c0.181-0.546,0.321-1.035,0.475-1.547
		c2.178-0.05,4.361-0.098,6.559-0.153l1.562,1.7c-2.898,0-5.726,0-8.595,0c-0.378,1.099-0.812,2.281-1.316,3.541
		c-3.583,8.833-9.477,17.721-18.254,26.094c-8.245,7.874-18.716,14.838-31.538,20.702h1.597l-2.787,0.589
		c0.421-0.189,0.784-0.399,1.19-0.589h-31.664v0.063l-198.719-0.013l-36.843,13.096l-0.49,0.182l-1.791-5.033l0.056,5.251
		c-11.094,0.11-22.32-0.707-33.302-2.276l-6.896,2.45h39.637l241.848,0.028c0.034-0.021,0.069-0.05,0.111-0.07h29.649h1.455
		l1.329-0.595c14.811-6.606,26.934-14.664,36.605-23.881c17.625-16.805,24.554-33.903,25.533-45.809l0.615-7.405H954.861z"/>
	<path fill="#C1D995" d="M946.562,729.673c0.461-0.539,0.944-1.078,1.399-1.618c-125.096,2.829-257.609,0.611-286.123-22.019
		c-52.432-41.588,77.767-298.106,106.371-363.115c14.44-32.825,31.518-89.294-24.301-86.018
		c-19.758,1.162-399.705,47.545-466.68,43.996c-57.589-3.037-79.671-59.003-78.803-40.86c1.154,24.118,24.791,61.879,58.932,77.97
		c20.313,9.561,171.374,12.472,387.401,3.933c0,0-2.849,28.893-29.144,30.769c-50.548,3.625-304.407,34.169-387.632,30.558
		c-49.694-2.162-78.439-51.262-78.299-33.413c0.153,21.823,24.944,54.495,57.616,70.243c29.768,14.368,206.496,13.305,394.94,6.089
		c0,0-5.222,29.984-30.11,31.587c-45.81,2.953-361.393,34.491-395.374,30.55c-23.482-2.723-58.68-22.95-74.841-32.098
		c-18.555-10.512,2.541,58.885,51.212,77.805c34.632,13.451,195.506,13.451,400.371,6.886c0,0-18.394,45.64-45.32,125.088
		c-28.997,85.6,62.012,108.102,117.165,107.549l-0.489,0.166l252.317,0.029c0.036-0.021,0.063-0.048,0.1-0.071h19.191
		c54.815-24.438,58.106-64.005,58.106-64.005C951.866,729.673,949.242,729.673,946.562,729.673z"/>
	<path fill="none" d="M631.181,685.276c-28.22-22.382-15.391-89.405,25.896-194.057c6.601-16.736,13.866-34.211,21.816-52.579
		c15.517-35.849,56.714-124.737,56.651-124.598c9.063-20.584,14.341-39.433,13.626-53.438c-0.832-16.462-9.616-24.251-31.264-22.978
		c-4.451,0.259-149.053,16.602-199.636,22.047c-13.047,1.414-25.708,2.757-38.013,4.053
		c-121.442,12.745-201.792,19.38-229.795,17.897c-22.593-1.205-41.616-9.799-58.4-23.755c-3.465-2.884-6.699-5.936-9.946-9.211
		c7.685,21.578,28.095,45.9,51.766,57.043c19.808,9.336,179.744,11.366,384.208,3.289l7.847-0.308l-0.771,7.811
		c-0.461,4.731-2.148,11.381-5.97,18.142c-6.096,10.779-15.853,17.82-29.487,18.792c-14.342,1.029-143.944,14.32-153.197,15.237
		c-17.378,1.708-33.694,3.276-49.316,4.71c-88.811,8.183-151.774,12.088-185.917,10.618c-19.304-0.84-36.605-7.923-53.81-19.835
		c-3.947-2.73-11.198-8.386-16.076-12.234c5.327,19.149,26.911,43.576,52.472,55.908c25.4,12.256,178.064,13.592,391.72,5.396
		l8.455-0.329l-1.456,8.335c-0.818,4.71-2.918,11.388-6.957,18.163c-6.587,11.045-16.322,18.24-29.466,19.093
		c-9.064,0.588-28.228,2.234-64.652,5.515c-10.309,0.938-51.107,4.633-51.142,4.633c-22.369,2.03-40.092,3.625-57.525,5.173
		c-7.889,0.699-15.511,1.372-22.922,2.022c-116.445,10.204-184.498,15.006-200.343,13.172c-9.051-1.05-19.8-4.396-32.147-9.659
		c-6.18-2.631-12.654-5.711-19.465-9.197c-7.335-3.744-12.171-6.384-21.871-11.863c0.796,4.389,2.827,10.309,5.956,16.665
		c10.212,20.801,27.353,38.887,47.145,46.587c30.67,11.913,172.34,13.655,397.676,6.426l10.484-0.337l-3.919,9.728
		c-0.567,1.402-1.667,4.187-3.262,8.302c-2.667,6.875-5.76,14.978-9.232,24.286c-9.925,26.612-20.92,57.45-32.679,92.139
		c-12.2,36.016-2.688,61.304,24.174,78.081c21.978,13.74,54.923,20.744,86.447,20.437l44.445-0.434l-1.863,0.609l212.928,0.021
		v-50.926C731.451,710.606,654.354,703.663,631.181,685.276z"/>
	<polygon fill="#010202" points="598.453,765.92 598.453,767.602 598.971,769.184 598.95,767.446 	"/>
	<path fill="#010202" d="M611.556,315.156c-0.063,0.637-0.287,1.995-0.741,3.815c-0.351,1.357-0.799,2.702-1.296,4.038
		c3.037-0.119,6.054-0.231,9.113-0.351L611.556,315.156z"/>
	<path fill="#010202" d="M125.585,346.66c-1.113,0.083-0.371,0.461,0.854,1.343c0.07,0.042,2.113,1.68,4.956,3.92
		c-0.805-2.884-1.252-5.655-1.273-8.246C130.122,344.252,129.114,346.393,125.585,346.66z"/>
	<polygon fill="#010202" points="598.453,765.92 598.95,767.446 598.971,769.184 600.573,774.111 601.07,773.941 641.469,760.776 
		598.453,760.769 	"/>
	<path fill="#010202" d="M74.793,454.88c-1.469,1.246-2.695,1.147-2.652,1.176c1.42,0.798,2.708,1.532,3.955,2.233
		c-0.225-1.204-0.393-2.345-0.414-3.29C75.661,454.166,75.668,454.152,74.793,454.88z"/>
	<path fill="#010202" d="M178.737,233.148c-0.743,2.323-3.269,4.354-6.44,3.947c-1.239-0.154-1.602-0.378-1.805-0.539
		c0.427,0.356,1.078,0.987,1.995,1.959c0.273,0.287,5.62,6.083,7.72,8.26c0.637,0.664,1.267,1.246,1.911,1.882
		c-1.876-5.264-3.023-10.365-3.247-15.068C178.842,233.008,178.856,232.771,178.737,233.148z"/>
	<path fill="#010202" d="M641.469,760.776l-40.398,13.165l-0.497,0.17l-1.603-4.928l0.049,5.094
		c-11.758,0.118-23.677-0.777-35.282-2.547l-8.308,2.709l43.023,0.006l255.943,0.028v-13.676L641.469,760.776z"/>
	<path fill="#010202" d="M943.509,696.714h-7.419c-27.828,0-54.788,0.006-81.693,0.014v13.676
		c24.105-0.007,48.309-0.013,73.085-0.013c-0.364,1.099-0.799,2.281-1.316,3.54c-3.569,8.841-9.462,17.736-18.253,26.115
		c-8.245,7.858-18.688,14.823-31.496,20.681h1.567l-2.785,0.603c0.419-0.188,0.798-0.405,1.218-0.603h-22.02v13.692h23.587h1.456
		l1.33-0.604c14.795-6.604,26.918-14.654,36.591-23.866c17.624-16.819,24.554-33.918,25.547-45.829L943.509,696.714z"/>
	<path fill="#010202" d="M596.829,760.937l1.624,4.983v-5.151l43.016,0.008l1.863-0.609l-44.445,0.434
		c-31.523,0.308-64.469-6.696-86.447-20.437c-26.863-16.777-36.374-42.065-24.174-78.081c11.758-34.688,22.754-65.526,32.679-92.139
		c3.473-9.309,6.565-17.411,9.232-24.286c1.595-4.115,2.694-6.899,3.262-8.302l3.919-9.728l-10.484,0.337
		c-225.336,7.229-367.006,5.487-397.676-6.426c-19.792-7.7-36.933-25.786-47.145-46.587c-3.129-6.356-5.16-12.276-5.956-16.665
		c-1.247-0.701-2.535-1.435-3.955-2.233c-0.043-0.029,1.183,0.07,2.652-1.176c0.875-0.728,0.867-0.714,0.888,0.119
		c0.021,0.945,0.189,2.085,0.414,3.29c9.7,5.479,14.536,8.119,21.871,11.863c6.811,3.486,13.285,6.566,19.465,9.197
		c12.347,5.263,23.096,8.608,32.147,9.659c15.845,1.834,83.898-2.968,200.343-13.172c7.411-0.65,15.034-1.323,22.922-2.022
		c17.434-1.548,35.156-3.143,57.525-5.173c0.034,0,40.833-3.695,51.142-4.633c36.424-3.281,55.587-4.927,64.652-5.515
		c13.144-0.853,22.879-8.048,29.466-19.093c4.039-6.775,6.139-13.452,6.957-18.163l1.456-8.335l-8.455,0.329
		c-213.656,8.196-366.32,6.859-391.72-5.396c-25.561-12.333-47.145-36.759-52.472-55.908c-2.842-2.24-4.886-3.878-4.956-3.92
		c-1.225-0.882-1.967-1.26-0.854-1.343c3.528-0.267,4.536-2.408,4.536-2.982c0.021,2.59,0.469,5.361,1.273,8.246
		c4.878,3.848,12.129,9.504,16.076,12.234c17.205,11.912,34.506,18.995,53.81,19.835c34.142,1.47,97.106-2.435,185.917-10.618
		c15.623-1.434,31.938-3.002,49.316-4.71c9.252-0.917,138.855-14.208,153.197-15.237c13.635-0.973,23.392-8.014,29.487-18.792
		c3.821-6.761,5.509-13.41,5.97-18.142l0.771-7.811l-7.847,0.308c-204.465,8.077-364.401,6.047-384.208-3.289
		c-23.671-11.143-44.081-35.465-51.766-57.043c-0.644-0.636-1.273-1.218-1.911-1.882c-2.1-2.177-7.447-7.973-7.72-8.26
		c-0.917-0.972-1.568-1.603-1.995-1.959c0.203,0.161,0.566,0.385,1.805,0.539c3.171,0.406,5.697-1.624,6.44-3.947
		c0.119-0.377,0.104-0.14,0.133,0.441c0.224,4.703,1.371,9.804,3.247,15.068c3.248,3.276,6.481,6.327,9.946,9.211
		c16.784,13.956,35.808,22.55,58.4,23.755c28.003,1.483,108.353-5.152,229.795-17.897c12.305-1.295,24.966-2.639,38.013-4.053
		c50.583-5.445,195.185-21.788,199.636-22.047c21.647-1.273,30.432,6.515,31.264,22.978c0.715,14.005-4.563,32.854-13.626,53.438
		c0.063-0.14-41.135,88.749-56.651,124.598c-7.95,18.367-15.216,35.843-21.816,52.579
		c-41.287,104.651-54.116,171.675-25.896,194.057c23.174,18.387,100.271,25.33,223.216,24.596v-13.773
		c-118.495,0.636-194.771-5.713-214.711-21.545c-20.612-16.336-8.196-81.188,30.117-178.317
		c6.544-16.581,13.753-33.925,21.647-52.164c15.427-35.646,56.602-124.479,56.617-124.514c9.853-22.397,15.613-42.96,14.768-59.646
		c-1.219-24.078-16.524-37.669-45.732-35.948c-4.879,0.294-150.397,16.729-200.294,22.118c-13.04,1.399-25.688,2.744-37.978,4.038
		c-120.335,12.633-200.727,19.268-227.646,17.841c-19.373-1.029-35.703-8.413-50.373-20.605c-3.723-3.093-7.182-6.368-10.765-10.078
		c-1.96-2.03-7.266-7.783-7.65-8.19c-3.66-3.849-5.221-5.165-8.378-5.563c-7.565-0.96-9.141,3.981-8.818,10.715
		c1.385,29.214,28.969,67.877,62.852,83.835c22.614,10.66,177.175,12.766,381.466,4.934c0.497-1.336,0.945-2.681,1.296-4.038
		c0.454-1.82,0.678-3.178,0.741-3.815l7.076,7.502c-3.06,0.12-6.076,0.232-9.113,0.351c-0.623,1.673-1.351,3.325-2.232,4.892
		c-3.969,7.028-9.841,11.255-18.548,11.884c-14.594,1.037-144.616,14.377-153.568,15.259c-17.351,1.708-33.637,3.276-49.225,4.703
		c-88.153,8.126-150.781,12.018-184.069,10.576c-16.372-0.714-31.356-6.852-46.622-17.42c-5.746-3.976-20.205-15.552-20.808-15.986
		c-3.919-2.842-6.537-4.158-9.896-3.892c-5.984,0.448-8.154,5.033-8.111,10.75c0.196,25.645,27.786,60.116,61.487,76.375
		c28.199,13.606,175.111,15.089,388.514,7.111c0.602-1.421,1.154-2.855,1.61-4.305c0.601-1.917,0.938-3.359,1.063-4.066l6.999,8.007
		c-3.255,0.126-6.446,0.238-9.673,0.364c-0.749,1.763-1.582,3.486-2.563,5.138c-4.458,7.482-10.463,11.912-18.596,12.444
		c-9.239,0.588-28.417,2.24-64.995,5.544c-10.317,0.931-51.121,4.632-51.149,4.632c-22.362,2.03-40.084,3.619-57.504,5.166
		c-7.882,0.7-15.497,1.373-22.901,2.023c-114.022,9.995-183.209,14.873-197.578,13.214c-7.503-0.875-17.112-3.864-28.36-8.658
		c-5.858-2.505-12.052-5.439-18.596-8.79c-8.042-4.109-12.998-6.846-25.315-13.824c-9.666-5.481-17.127,0.804-16.875,11.177
		c0.16,6.664,2.988,15.944,7.762,25.658c11.611,23.644,31.117,44.221,54.474,53.306c32.861,12.767,169.903,14.628,392.699,7.671
		c0.153-0.405,0.322-0.854,0.482-1.259c1.617-4.173,2.737-6.999,3.325-8.455l6.565,9.392c-3.501,0.112-6.915,0.218-10.373,0.322
		c-2.583,6.663-5.522,14.384-8.813,23.203c-9.974,26.742-21.018,57.706-32.819,92.521c-14.264,42.121-2.281,73.994,29.879,94.081
		c16.008,10.003,36.697,16.625,58.548,19.963l32.596-10.625L596.829,760.937z"/>
	<path fill="#010202" d="M520.749,532.249c-0.588,1.456-1.708,4.282-3.325,8.455c-0.16,0.405-0.329,0.854-0.482,1.259
		c3.458-0.104,6.872-0.21,10.373-0.322L520.749,532.249z"/>
	<path fill="#010202" d="M598.971,769.184l-0.518-1.582v-1.682l-1.624-4.983l-0.496,0.169l-32.596,10.625
		c11.605,1.77,23.524,2.665,35.282,2.547L598.971,769.184z"/>
	<path fill="#010202" d="M569.113,418.89c-0.126,0.707-0.463,2.149-1.063,4.066c-0.456,1.45-1.009,2.884-1.61,4.305
		c3.227-0.126,6.418-0.238,9.673-0.364L569.113,418.89z"/>
	<path fill="none" d="M957.102,734.711c-167.349,4.263-271.873-1.377-299.52-23.313c-28.214-22.384-15.385-89.406,25.896-194.058
		c6.6-16.729,13.872-34.212,21.816-52.577c15.524-35.871,56.734-124.78,56.65-124.592c9.07-20.612,14.341-39.44,13.628-53.452
		c-0.833-16.462-9.616-24.259-31.259-22.985c-4.451,0.267-149.061,16.602-199.635,22.054c-13.054,1.407-25.716,2.758-38.02,4.054
		c-121.436,12.745-201.792,19.373-229.795,17.889c-22.594-1.19-41.617-9.785-58.408-23.741c-3.457-2.884-6.69-5.936-9.945-9.211
		c7.692,21.571,28.101,45.887,51.758,57.043c19.829,9.337,179.841,11.367,384.217,3.283l7.846-0.315l-0.77,7.818
		c-0.462,4.725-2.155,11.374-5.977,18.134c-6.091,10.779-15.847,17.82-29.481,18.8c-14.333,1.021-143.867,14.314-153.161,15.23
		c-17.394,1.715-33.715,3.276-49.344,4.717c-88.813,8.189-151.776,12.095-185.918,10.611c-19.303-0.841-36.604-7.923-53.808-19.828
		c-3.948-2.724-11.206-8.386-16.084-12.229c5.319,19.143,26.918,43.577,52.479,55.895c25.399,12.263,178.002,13.592,391.713,5.411
		l8.447-0.33l-1.448,8.336c-0.82,4.71-2.919,11.389-6.957,18.163c-6.58,11.045-16.323,18.239-29.46,19.08
		c-9.064,0.587-28.228,2.239-64.637,5.522c-10.317,0.93-51.143,4.633-51.143,4.633c-22.362,2.023-40.083,3.619-57.511,5.172
		c-7.902,0.7-15.531,1.372-22.951,2.023c-116.45,10.212-184.503,15.013-200.349,13.173c-9.051-1.051-19.794-4.404-32.14-9.659
		c-6.173-2.633-12.647-5.706-19.451-9.183c-7.343-3.752-12.13-6.362-21.887-11.871c0.799,4.388,2.829,10.31,5.949,16.665
		c10.219,20.802,27.36,38.887,47.154,46.587c30.663,11.905,172.367,13.647,397.675,6.418l10.484-0.337l-3.919,9.729
		c-0.56,1.398-1.665,4.179-3.261,8.294c-2.674,6.873-5.761,14.985-9.232,24.294c-9.932,26.618-20.928,57.456-32.686,92.143
		c-12.2,36.004-2.689,61.298,24.167,78.083c21.992,13.731,54.937,20.746,86.447,20.423l40.874-0.405l-1.666,0.595l285.102,0.021
		C954.512,769.757,958.858,752.287,957.102,734.711z"/>
	<path fill="#CCCCCB" d="M637.949,341.27c-0.063,0.637-0.286,1.988-0.749,3.808c-0.344,1.357-0.791,2.709-1.288,4.046
		c3.038-0.126,6.047-0.231,9.113-0.351L637.949,341.27z"/>
	<polygon fill="#CCCCCB" points="624.854,792.181 624.854,793.72 625.358,795.142 625.343,793.554 	"/>
	<polygon fill="#CCCCCB" points="624.854,792.181 625.343,793.554 625.358,795.142 627.149,800.175 627.64,799.993 664.482,786.897 
		624.86,786.89 	"/>
	<path fill="#CCCCCB" d="M205.13,259.269c-0.742,2.323-3.269,4.354-6.439,3.947c-1.239-0.155-1.602-0.371-1.806-0.539
		c0.426,0.357,1.078,0.987,1.995,1.96c0.273,0.287,5.626,6.082,7.72,8.251c0.637,0.665,1.273,1.252,1.911,1.89
		c-1.876-5.263-3.024-10.365-3.247-15.068C205.235,259.128,205.249,258.89,205.13,259.269z"/>
	<path fill="#CCCCCB" d="M101.193,481.007c-1.469,1.239-2.686,1.142-2.652,1.168c1.42,0.799,2.709,1.535,3.954,2.234
		c-0.224-1.205-0.392-2.345-0.413-3.291C102.062,480.286,102.069,480.272,101.193,481.007z"/>
	<path fill="#CCCCCB" d="M151.986,372.78c-1.112,0.084-0.371,0.461,0.854,1.343c0.063,0.042,2.106,1.68,4.949,3.919
		c-0.799-2.883-1.246-5.655-1.267-8.244C156.529,370.373,155.521,372.515,151.986,372.78z"/>
	<path fill="#CCCCCB" d="M625.358,795.142l-0.505-1.422v-1.539l-1.799-5.073l-0.489,0.174l-30.453,10.835
		c10.981,1.569,22.208,2.387,33.302,2.276L625.358,795.142z"/>
	<path fill="#CCCCCB" d="M595.506,445.011c-0.125,0.706-0.461,2.148-1.064,4.059c-0.453,1.449-1.014,2.884-1.616,4.313
		c3.233-0.127,6.426-0.239,9.681-0.365L595.506,445.011z"/>
	<path fill="#CCCCCB" d="M547.149,558.354c-0.58,1.456-1.701,4.292-3.324,8.455c-0.161,0.407-0.328,0.854-0.483,1.261
		c3.458-0.104,6.874-0.21,10.373-0.323L547.149,558.354z"/>
</g>
</svg>
